<?xml version="1.0" encoding="UTF-8"?>
<svg id="Layer_2" data-name="Layer 2" xmlns="http://www.w3.org/2000/svg" xmlns:xlink="http://www.w3.org/1999/xlink" viewBox="0 0 164 164">
  <defs>
    <style>
      .cls-1 {
        fill: url(#linear-gradient-2);
      }

      .cls-2 {
        fill: #fff;
      }

      .cls-3 {
        fill: url(#linear-gradient-6);
      }

      .cls-4 {
        stroke: #fff;
        stroke-miterlimit: 10;
      }

      .cls-4, .cls-5, .cls-6 {
        fill: #2d2f33;
      }

      .cls-7 {
        fill: url(#linear-gradient-5);
      }

      .cls-8 {
        fill: none;
      }

      .cls-9 {
        fill: url(#linear-gradient-7);
      }

      .cls-10 {
        fill: url(#linear-gradient-9);
      }

      .cls-11 {
        fill: url(#linear-gradient-3);
      }

      .cls-12 {
        fill: url(#linear-gradient);
      }

      .cls-13 {
        fill: url(#linear-gradient-4);
      }

      .cls-6 {
        isolation: isolate;
        opacity: .39;
      }

      .cls-14 {
        fill: url(#linear-gradient-8);
      }
    </style>
    <linearGradient id="linear-gradient" x1="84.35" y1="-54.97" x2="-56.17" y2="188.42" gradientUnits="userSpaceOnUse">
      <stop offset="0" stop-color="#22f47c"/>
      <stop offset=".15" stop-color="#21f385"/>
      <stop offset=".4" stop-color="#20f39e"/>
      <stop offset=".72" stop-color="#1ef2c7"/>
      <stop offset=".99" stop-color="#1df2f2"/>
    </linearGradient>
    <linearGradient id="linear-gradient-2" x1="146.94" y1="-18.83" x2="6.42" y2="224.55" xlink:href="#linear-gradient"/>
    <linearGradient id="linear-gradient-3" x1="160.48" y1="-11.02" x2="19.96" y2="232.37" xlink:href="#linear-gradient"/>
    <linearGradient id="linear-gradient-4" x1="110.91" y1="-39.63" x2="-29.61" y2="203.75" xlink:href="#linear-gradient"/>
    <linearGradient id="linear-gradient-5" x1="124.45" y1="-31.81" x2="-16.07" y2="211.57" xlink:href="#linear-gradient"/>
    <linearGradient id="linear-gradient-6" x1="783.99" y1="-1183.46" x2="-830.1" y2="1612.22" xlink:href="#linear-gradient"/>
    <linearGradient id="linear-gradient-7" x1="778.96" y1="-1186.36" x2="-835.12" y2="1609.32" xlink:href="#linear-gradient"/>
    <linearGradient id="linear-gradient-8" x1="96.78" y1="-47.79" x2="-43.74" y2="195.6" xlink:href="#linear-gradient"/>
    <linearGradient id="linear-gradient-9" x1="132.64" y1="-73.9" x2="-53.32" y2="248.2" xlink:href="#linear-gradient"/>
  </defs>
  <g id="Layer_1-2" data-name="Layer 1">
    <polygon class="cls-8" points="30.1 64.69 8.9 64.69 8.9 76.87 2.54 76.87 2.54 100.19 31.16 100.19 31.16 64.69 30.1 64.69"/>
    <polygon class="cls-8" points="75.68 100.19 75.68 76.87 69.32 76.87 69.32 64.69 49.71 64.69 49.71 100.19 75.68 100.19"/>
    <path class="cls-2" d="m140.74,24.81h0s-4.98,9.36-4.98,9.36c-2.62,2.06-5.72,4.03-9.2,5.87-.18.09-.35.19-.53.28-2.77,1.44-5.77,2.82-9.01,4.1-19.2,7.62-46.28,12.37-76.28,12.37-12.49,0-24.47-.83-35.59-2.34.99-2.73,2.11-5.39,3.37-7.98,2.96.17,5.98.32,9.05.44.58.04,1.15.09,1.73.13,7.02.48,14.33.74,21.86.74,7.97,0,15.69-.29,23.08-.83.84-.06,1.67-.13,2.5-.2,15.27-1.25,28.97-3.58,40.04-6.7.86-.24,1.72-.49,2.55-.74,6.77-2.06,12.44-4.43,16.76-7.02l.68-.98-8.91,2.68h0c-19.17,5.22-46.21,8.47-76.17,8.47-10.58,0-20.79-.41-30.42-1.16,1.27-2.19,2.64-4.33,4.1-6.39,8.17.61,16.66.93,25.38.93,33.52,0,63.77-4.75,85.22-12.37,3.33-1.18,6.43-2.44,9.31-3.75.01,0,.03-.01.04-.02C120.97,7.44,102.36,0,82,0,36.71,0,0,36.71,0,82s36.71,82,82,82,82-36.71,82-82c0-22.25-8.88-42.42-23.26-57.19Z"/>
    <g>
      <path class="cls-5" d="m140.43,25.88c-.13,0-.26-.05-.36-.15-1.77-1.82-3.68-3.61-5.67-5.31-.13-.11-.19-.28-.17-.45s.13-.31.29-.38c4.66-2.13,8.73-4.4,12.08-6.76.09-.06.19-.09.29-.09.12,0,.24.04.33.12.17.15.22.41.11.61l-6.46,12.15c-.08.14-.21.24-.37.26-.02,0-.05,0-.07,0Z"/>
      <path class="cls-2" d="m146.9,13.23h0m0,0l-6.47,12.15c-1.82-1.87-3.72-3.65-5.7-5.34,4.66-2.12,8.74-4.4,12.16-6.81m0-1s-.02,0-.03,0h0c-.21,0-.4.07-.55.19-3.33,2.34-7.36,4.6-11.99,6.71-.31.14-.53.43-.57.77-.05.34.08.68.34.9,1.97,1.69,3.86,3.46,5.63,5.28.19.19.45.3.72.3.05,0,.09,0,.14-.01.32-.04.59-.24.74-.52l6.44-12.1c.09-.15.15-.33.15-.52,0-.55-.45-1-1-1h0Zm0,2h0,0Z"/>
    </g>
    <path class="cls-5" d="m125.95,23.49c-21.45,7.62-51.7,12.37-85.22,12.37-8.71,0-17.2-.32-25.38-.93-1.46,2.06-2.83,4.19-4.1,6.39,9.63.75,19.84,1.16,30.42,1.16,29.96,0,56.99-3.25,76.17-8.46h0s8.91-2.68,8.91-2.68l-.68.98c-4.31,2.59-9.98,4.96-16.76,7.02-.83.25-1.68.5-2.55.74-11.07,3.12-24.77,5.45-40.04,6.7-.83.07-1.66.14-2.5.2-7.39.54-15.11.83-23.08.83-7.53,0-14.84-.25-21.86-.74-.58-.04-1.15-.09-1.73-.13-3.07-.12-6.09-.27-9.05-.44-1.26,2.59-2.38,5.25-3.37,7.98,11.12,1.51,23.1,2.34,35.59,2.34,30,0,57.08-4.75,76.28-12.37,3.24-1.29,6.24-2.66,9.01-4.1.18-.09.35-.18.53-.28,3.48-1.85,6.58-3.81,9.2-5.87l4.98-9.35h0c-1.73-1.78-3.54-3.48-5.43-5.09-.01,0-.03.01-.04.02-2.88,1.31-5.99,2.57-9.31,3.75Z"/>
    <path class="cls-8" d="m.47,76.87c-.12,1.8-.18,3.61-.18,5.44,0,6.14.68,12.12,1.96,17.88h.3v-23.32H.47Z"/>
    <path class="cls-12" d="m.47,76.87c-.12,1.8-.18,3.61-.18,5.44,0,6.14.68,12.12,1.96,17.88h.3v-23.32H.47Z"/>
    <rect class="cls-8" x="75.68" y="76.87" width="18.55" height="23.32"/>
    <rect class="cls-1" x="75.68" y="76.87" width="18.55" height="23.32"/>
    <rect class="cls-8" x="75.68" y="107.61" width="18.55" height="24.38"/>
    <rect class="cls-11" x="75.68" y="107.61" width="18.55" height="24.38"/>
    <polygon class="cls-8" points="49.71 64.69 48.65 64.69 31.16 64.69 31.16 100.19 49.71 100.19 49.71 64.69"/>
    <polygon class="cls-13" points="49.71 64.69 48.65 64.69 31.16 64.69 31.16 100.19 49.71 100.19 49.71 64.69"/>
    <rect class="cls-8" x="31.16" y="107.61" width="18.55" height="12.2"/>
    <rect class="cls-7" x="31.16" y="107.61" width="18.55" height="12.2"/>
    <polygon class="cls-5" points="49.71 119.81 31.16 119.81 24.8 119.81 24.8 129.72 56.07 129.72 56.07 119.81 49.71 119.81"/>
    <path class="cls-8" d="m126.02,44.05l-.68.98c-4.32,2.59-10,4.96-16.79,7.02-17.19,5.21-41.44,8.46-68.3,8.46-12.91,0-25.21-.76-36.42-2.12-.63,2.06-1.18,4.17-1.64,6.3h124.36v-24.64c-.18.09-.35.19-.53.28v3.73Z"/>
    <path class="cls-3" d="m126.02,44.05l-.68.98c-4.32,2.59-10,4.96-16.79,7.02-17.19,5.21-41.44,8.46-68.3,8.46-12.91,0-25.21-.76-36.42-2.12-.63,2.06-1.18,4.17-1.64,6.3h124.36v-24.64c-.18.09-.35.19-.53.28v3.73Z"/>
    <path class="cls-8" d="m108.56,52.04c6.79-2.06,12.47-4.43,16.79-7.02l.68-.98v-3.73c-2.77,1.44-5.77,2.82-9.01,4.1-19.2,7.62-46.28,12.37-76.28,12.37-12.49,0-24.47-.83-35.59-2.34-.47,1.3-.9,2.61-1.31,3.93,11.21,1.36,23.51,2.12,36.42,2.12,26.86,0,51.11-3.25,68.3-8.46Z"/>
    <path class="cls-9" d="m108.56,52.04c6.79-2.06,12.47-4.43,16.79-7.02l.68-.98v-3.73c-2.77,1.44-5.77,2.82-9.01,4.1-19.2,7.62-46.28,12.37-76.28,12.37-12.49,0-24.47-.83-35.59-2.34-.47,1.3-.9,2.61-1.31,3.93,11.21,1.36,23.51,2.12,36.42,2.12,26.86,0,51.11-3.25,68.3-8.46Z"/>
    <path class="cls-6" d="m108.56,52.04c6.79-2.06,12.47-4.43,16.79-7.02l.68-.98v-3.73c-2.77,1.44-5.77,2.82-9.01,4.1-19.2,7.62-46.28,12.37-76.28,12.37-12.49,0-24.47-.83-35.59-2.34-.47,1.3-.9,2.61-1.31,3.93,11.21,1.36,23.51,2.12,36.42,2.12,26.86,0,51.11-3.25,68.3-8.46Z"/>
    <path class="cls-5" d="m2.19,64.69c-.86,3.92-1.44,7.94-1.71,12.04,0,.05,0,.1,0,.15h8.43v-12.19H2.19Z"/>
    <polygon class="cls-5" points="94.23 131.99 75.68 131.99 69.32 131.99 69.32 144.18 100.59 144.18 100.59 131.99 94.23 131.99"/>
    <polygon class="cls-5" points="69.32 64.69 69.32 76.87 75.68 76.87 94.23 76.87 100.59 76.87 100.59 64.69 69.32 64.69"/>
    <path class="cls-4" d="m8.69,46.11c-.06.12-.12.24-.18.37,2.96.17,5.98.32,9.05.44-3.02-.23-5.98-.49-8.87-.8Z"/>
    <path class="cls-4" d="m40.89,47.71c-7.55,0-14.88-.25-21.92-.74h0c-.47-.01-.94-.03-1.41-.05.58.04,1.15.09,1.73.13,7.02.48,14.33.74,21.86.74,7.97,0,15.69-.29,23.08-.83.84-.06,1.67-.13,2.5-.2-.9.04-1.8.08-2.7.12-7.41.54-15.16.83-23.14.83Z"/>
    <path class="cls-14" d="m40.89,47.71c-7.55,0-14.88-.25-21.92-.74h0c-.47-.01-.94-.03-1.41-.05.58.04,1.15.09,1.73.13,7.02.48,14.33.74,21.86.74,7.97,0,15.69-.29,23.08-.83.84-.06,1.67-.13,2.5-.2-.9.04-1.8.08-2.7.12-7.41.54-15.16.83-23.14.83Z"/>
    <path class="cls-4" d="m40.26,46.18c25.22,0,48.37-2.29,66.52-6.12.86-.24,1.72-.49,2.55-.74,6.77-2.06,12.44-4.43,16.76-7.02l.68-.98-8.91,2.68h0c-19.17,5.22-46.21,8.47-76.17,8.47-10.58,0-20.79-.41-30.42-1.16-.7,1.2-1.37,2.43-2,3.67,9.8.78,20.21,1.2,31,1.2Z"/>
    <path class="cls-4" d="m9.26,44.98c-.19.38-.38.76-.56,1.13,2.89.31,5.85.58,8.87.8.47.02.94.04,1.41.06h0c7.03.48,14.37.73,21.92.73,7.99,0,15.73-.29,23.14-.83.91-.04,1.8-.08,2.7-.12,15.27-1.25,28.97-3.58,40.04-6.7-18.15,3.83-41.3,6.12-66.52,6.12-10.79,0-21.2-.42-31-1.2Z"/>
    <path class="cls-10" d="m117.85,34h0c-19.17,5.22-46.21,8.47-76.17,8.47-10.58,0-20.79-.41-30.42-1.16-.7,1.2-1.37,2.43-2,3.67-.19.38-.38.76-.56,1.13,2.89.31,5.85.58,8.87.8.47.02.94.04,1.41.06h0c7.03.48,14.37.73,21.92.73,7.99,0,15.73-.29,23.14-.83.91-.04,1.8-.08,2.7-.12,15.27-1.25,28.97-3.58,40.04-6.7.86-.24,1.72-.49,2.55-.74,6.77-2.06,12.44-4.43,16.76-7.02l.68-.98-8.91,2.68Z"/>
    <path class="cls-5" d="m94.23,100.19H2.24c.1.43.2.86.3,1.29.5,2.07,1.07,4.12,1.72,6.13h114.34v-7.42h-24.38Z"/>
  </g>
</svg>