<?xml version="1.0" encoding="UTF-8"?>
<svg id="Layer_2" data-name="Layer 2" xmlns="http://www.w3.org/2000/svg" viewBox="0 0 254.06 169.28">
  <defs>
    <style>
      .cls-1 {
        fill: #010001;
      }

      .cls-2 {
        fill: none;
        stroke: #000;
        stroke-linecap: round;
        stroke-linejoin: round;
        stroke-width: 8px;
      }
    </style>
  </defs>
  <g id="Layer_1-2" data-name="Layer 1">
    <g>
      <path d="m125.47,8c8.07,0,16.03,1.47,23.65,4.37,34.27,13.05,51.53,51.54,38.48,85.81-4.89,12.85-13.47,23.7-24.81,31.37-11.1,7.51-24.01,11.48-37.35,11.48-8.07,0-16.03-1.47-23.65-4.37-34.27-13.05-51.53-51.54-38.48-85.81,4.89-12.85,13.47-23.7,24.81-31.37,11.1-7.51,24.01-11.48,37.35-11.48h0M125.46,0c-30.02,0-58.32,18.28-69.64,48.01-14.64,38.45,4.66,81.49,43.11,96.13,8.73,3.32,17.68,4.9,26.5,4.9,30.02,0,58.32-18.28,69.64-48.01,14.64-38.45-4.66-81.49-43.11-96.13C143.23,1.57,134.27,0,125.46,0h0Z"/>
      <path class="cls-2" d="m185.05,108.82c-39.75-22.31-11.58-78.95-11.58-78.95,0,0,8.69,47.8-115.09,30.71"/>
      <path d="m176.69,27.01S96.47-38.69,59.17,58.51c0,0,104.74,24.3,117.52-31.5Z"/>
      <path d="m188.32,107.63s19.24-59.29-12.59-76.91c0,0-25.66,73.63,12.59,76.91Z"/>
      <path d="m94.68,101.6s12.68,25.99,34.8,16.07"/>
      <path class="cls-1" d="m5.05,150.21c80.73,4.15,161.7,3.95,242.38-1.36,3.39-.26,6.35,2.27,6.61,5.66.32,3.72-2.89,6.93-6.61,6.61-60.51-4.31-121.17-4.67-181.79-3.66-20.2.4-40.4,1.02-60.6,2.3-6.64.16-6.82-9.63,0-9.54h0Z"/>
      <path class="cls-1" d="m28.9,164.28c56.43-3,114.54-2.8,171.02-1.12,3.71.16,14.65.61,18.32.78,0,0,6.11.34,6.11.34,0,0,.14,0,.14,0,3.12.23,3.15,4.88-.14,4.99,0,0-195.45,0-195.45,0-3.22-.06-3.36-4.89,0-5h0Z"/>
    </g>
  </g>
</svg>