<?xml version="1.0" encoding="UTF-8"?>
<svg id="Layer_2" data-name="Layer 2" xmlns="http://www.w3.org/2000/svg" viewBox="0 0 187 234">
  <defs>
    <style>
      .cls-1 {
        stroke-miterlimit: 10;
      }

      .cls-1, .cls-2 {
        fill: none;
        stroke: #000;
        stroke-width: 8px;
      }

      .cls-2 {
        stroke-linecap: round;
        stroke-linejoin: round;
      }
    </style>
  </defs>
  <g id="Layer_1-2" data-name="Layer 1">
    <g>
      <rect class="cls-1" x="4" y="4" width="179" height="226" rx="20.8" ry="20.8"/>
      <circle cx="28.85" cy="32.4" r="9.19"/>
      <path d="m94,68.5c26.74,0,48.5,21.76,48.5,48.5s-21.76,48.5-48.5,48.5-48.5-21.76-48.5-48.5,21.76-48.5,48.5-48.5m0-8c-31.2,0-56.5,25.3-56.5,56.5s25.3,56.5,56.5,56.5,56.5-25.3,56.5-56.5-25.3-56.5-56.5-56.5h0Z"/>
      <path class="cls-2" d="m145.5,125.22c-34.19-5.08-29.51-52.83-29.51-52.83,0,0,19.06,31.53-73.28,52.83"/>
      <path class="cls-1" d="m159.31,182.13c1.58,0,3.11.21,4.59.56h0V51.03c0-12.85-10.42-23.27-23.27-23.27H48.1c.36,1.49.57,3.04.57,4.65,0,10.94-8.87,19.82-19.82,19.82-2.13,0-4.17-.34-6.09-.96v131.43c0,12.85,10.42,23.27,23.27,23.27h93.87c-.27-1.29-.41-2.63-.41-4.01,0-10.94,8.87-19.82,19.82-19.82Z"/>
      <circle cx="159.31" cy="201.95" r="9.19"/>
      <path d="m117.5,69.5s-74.59-24.91-74.79,54.04c0,0,80.79-11.04,74.79-54.04Z"/>
      <path d="m147.5,123.5s-2.36-47.22-29.68-51.11c0,0,1.68,59.11,29.68,51.11Z"/>
      <path d="m79.5,144.5s16,15,29,2"/>
    </g>
  </g>
</svg>