<?xml version="1.0" encoding="UTF-8"?>
<svg id="Layer_2" data-name="Layer 2" xmlns="http://www.w3.org/2000/svg" viewBox="0 0 218.27 170.51">
  <defs>
    <style>
      .cls-1 {
        fill: #010001;
      }

      .cls-2 {
        stroke: #010001;
        stroke-linecap: round;
        stroke-miterlimit: 10;
        stroke-width: 12.27px;
      }
    </style>
  </defs>
  <g id="Layer_1-2" data-name="Layer 1">
    <g>
      <path class="cls-2" d="m151.1,8.42l-41.11,41.11L66.6,6.13H6.13v135l18,23,170.76.24,17.24-17.24V8.42h-61.03Zm-39.77,147.71c-26.83,0-48.59-21.75-48.59-48.59s21.75-48.59,48.59-48.59,48.59,21.75,48.59,48.59-21.75,48.59-48.59,48.59Z"/>
      <g>
        <path d="m73.67,105.81c2.06-24.02,14.31-36.18,36.49-36.18,6.28,0,11.93,1.01,15.51,1.84-.18,4.06-1.61,7.81-4.31,11.38-9.65,12.75-33.43,20-47.68,22.97Z"/>
        <path class="cls-1" d="m110.16,75.76c2.89,0,5.64.24,8.06.57-.77,1.58-1.88,3.12-3.35,4.69-3.82,4.06-10.02,7.98-17.93,11.33-5.39,2.28-10.93,4.04-15.83,5.36,1.64-6.9,4.52-12.15,8.62-15.68,4.83-4.15,11.7-6.26,20.43-6.26m0-12.27c-18.67,0-42.82,8.05-42.93,49.68,0,0,69.48-9.5,64.32-46.47,0,0-9.6-3.21-21.39-3.21h0Z"/>
      </g>
      <g>
        <path d="m150.47,107.08c-6.43-2.93-10.07-16.64-11.63-27.98,7.32,6.64,10.4,20.02,11.63,27.98Z"/>
        <path class="cls-1" d="m131.82,69.19s1.27,44.59,21.21,44.59c1.35,0,2.78-.2,4.31-.64,0,0-2.03-40.6-25.52-43.95h0Z"/>
      </g>
      <path d="m123.8,132.91l-24.94-1.72s13.76,12.9,24.94,1.72Z"/>
    </g>
  </g>
</svg>