<?xml version="1.0" encoding="UTF-8"?>
<svg id="Layer_2" data-name="Layer 2" xmlns="http://www.w3.org/2000/svg" viewBox="0 0 254.06 194.61">
  <defs>
    <style>
      .cls-1 {
        fill: #010001;
      }
    </style>
  </defs>
  <g id="Layer_1-2" data-name="Layer 1">
    <g>
      <path class="cls-1" d="m51.37,156.37h.21s-.03-.08-.04-.12l-.17.12Z"/>
      <g>
        <path class="cls-1" d="m233.9,178.77c0-.16-.01-.31-.02-.46h-.17c.06.15.12.31.19.46Z"/>
        <path class="cls-1" d="m31.89,178.3l.2-.14c1.13-4.59-1.94-9.22-.57-14.5,1.03-3.98,3.67-7.63,5.63-11.16,6.47-11.67,13.62-21.13,21.75-31.64,14.94-19.31,16.08-39.51,18.66-62.81,1.38-12.46,4.8-24.71,9.67-36.26,6.49-15.39,7.89-11.01,21.26-9.54,11.38,1.25,19.37-7.75,31.38-6.85,10.77.81,21.45,4.37,28.62,12.85,6.51,5.67,5.65,13.79,7.05,21.16-.39,5.88-.78,11.76-1.18,17.64,3.05,16.3,4.56,33.86,12.42,48.74,3.12,5.9,10,11.68,10.7,18.39.37,3.55-2.02,6.01-1.75,9.58.34,4.49,3.09,9.62,4.49,13.83,5.95,9.7,11.18,19.61,12.61,30.71h5.42c-3.29-15.34-11.71-30.87-18.42-44.56.5-.46.99-.92,1.49-1.38,7.03,5.97,14.07,11.94,21.1,17.91.35-.86.7-1.73,1.05-2.59-11.93-14.33-25.87-28.15-33.64-45.31-7.36-16.27-8.21-33.27-9.2-50.81-.89-15.77-.35-33.7-14.9-43.54-15.12-10.23-31.6-9.83-47.25-3.49-10.11,4.09-12.96-3.27-22.27-1.77-7.09,1.14-11.04,10.8-13.63,16.42-8.28,17.95-10.84,37.59-12.43,57.08-1.68,20.57-8.16,31.24-20.39,47.56-9.17,12.24-15.45,24.52-21.37,37.86v16.63h3.49Z"/>
        <path class="cls-1" d="m110.25,159.18c-2.7-9.18-13.1-5.31-15.94-10.74-1.33-2.54,1.85-4.55,2.02-6.82.27-3.57.38-6.23.11-9.9-.53-7.1,3.75-19.37-.86-25.27l-2.66.09c-1.07,2.71-2.15,5.43-3.22,8.14-2.54,8.49-2.76,15.35,2.67,22.61-1.02,6.6-7.59,5.27-4.67,12.91,2.77,7.22,10.24,9.46,15.97,4.45v11.77c-.75,3.96-1.47,7.93-2.19,11.89h6.73c1.78-6.69,3.49-14.17,2.03-19.12Z"/>
        <path class="cls-1" d="m85.13,106.44c5.83-15.96,12.09-31.82,17.15-48.04,9.13,8.56,18.1,13.9,19.78,26.48-9.69-3.77-16.07-7.61-22.12,4.15-1.44,2.79-2.3,6.61-3.42,9.42-1.32,3.32-6.9,3.07-3.61,8.07l2.66-.09c2.69-2.78,5.49-5.39,7.61-8.66,1.42-2.19,2.24-7.84,4.29-9.28,5.26-3.68,10.6,3.71,16.35-2.02,8.84-8.82-11.85-31.66-21.05-32.09-10.08-.48-16.95,31.59-19.84,39.39-6.62,17.87-12.28,35.52-17.08,53.94-15.85-4.3-20.9,12.71-20.68,30.57h6.21c1.07-9.07,3.24-17.97,4.53-24.59,1.37,8.28,2.71,16.45,4.05,24.59h9.77c.84-15.91,3.49-31.56,7.33-48.29,2.69-7.86,5.38-15.71,8.08-23.57Z"/>
        <path class="cls-1" d="m222.43,150.27c3.76,9.34,7.52,18.69,11.28,28.03h.17c-.3-11.27-3.12-21.7-10.4-30.62-.35.86-.7,1.73-1.05,2.59Z"/>
        <path class="cls-1" d="m170.31,169.71c2.81-1.63,5.09-4.19,8.01-6.69,1.78,3.59,3.05,9.13,3.78,15.27h29.55c-3.45-10.36-7.57-20.49-11.43-30.71-3.93-6.67-9.21-12.9-5-21.66.71-1.47-.71-4.63-2.03-6.32-14.38-18.45-17.42-40.24-18.84-62.55.39-5.88.78-11.76,1.18-17.64-2.35-7.05-4.7-14.11-7.05-21.16-7.16-8.48-17.85-12.04-28.62-12.85-12.01-.9-20,8.11-31.38,6.85-13.37-1.47-14.77-5.85-21.26,9.54-4.87,11.55-8.29,23.79-9.67,36.26-2.58,23.31-3.71,43.5-18.66,62.81-8.12,10.5-15.27,19.96-21.75,31.64-1.96,3.53-4.6,7.18-5.63,11.16-1.36,5.28,1.71,9.91.57,14.5.02.05.03.09.05.14h13.03c-.22-17.87,4.83-34.87,20.68-30.57,4.8-18.43,10.47-36.07,17.08-53.94,2.89-7.8,9.76-39.87,19.84-39.39,9.2.44,29.9,23.27,21.05,32.09-5.75,5.73-11.09-1.66-16.35,2.02-2.05,1.43-2.86,7.09-4.29,9.28-2.12,3.27-4.92,5.88-7.61,8.66,4.61,5.9.33,18.18.86,25.27.27,3.67.16,6.33-.11,9.9-.17,2.27-3.34,4.29-2.02,6.82,2.84,5.43,13.24,1.56,15.94,10.74,1.46,4.95-.25,12.43-2.03,19.12h57.51c.32-3.8,1.71-6.92,4.59-8.59Zm-34.47-72.42c1.36-12.49,8.44-14.16,18.37-18.97,15.84-7.69,15.5,3.4,17.63,17.77,1.23,8.31,10.54,34.65-1.7,37.14-10.27,2.09-23.92-18.32-29.57-24.95-2.47-2.9-3.2-7.28-4.72-10.98Z"/>
        <path class="cls-1" d="m195.22,125.93c-4.21,8.77,1.06,14.99,5,21.66-1.39-4.21-4.14-9.34-4.49-13.83-.27-3.57,2.12-6.03,1.75-9.58-.7-6.71-7.59-12.48-10.7-18.39-7.86-14.88-9.37-32.44-12.42-48.74,1.41,22.31,4.46,44.1,18.84,62.55,1.32,1.69,2.74,4.85,2.03,6.32Z"/>
        <path class="cls-1" d="m211.66,178.3h1.17c-1.43-11.1-6.66-21.01-12.61-30.71,3.86,10.22,7.99,20.35,11.43,30.71Z"/>
        <path class="cls-1" d="m168.48,18.26c2.35,7.05,4.7,14.11,7.05,21.16-1.4-7.37-.55-15.49-7.05-21.16Z"/>
        <path class="cls-1" d="m170.14,133.23c12.25-2.49,2.93-28.83,1.7-37.14-2.13-14.37-1.79-25.45-17.63-17.77-9.92,4.82-17,6.48-18.37,18.97,1.52,3.7,2.25,8.09,4.72,10.98,5.65,6.62,19.3,27.04,29.57,24.95Zm-27.63-36.98c-.43-13.47,12.67-7.02,18.73-16.34.5.1.99.21,1.49.31,2.41,15.92,4.82,31.84,7.23,47.76-.56.38-1.12.77-1.69,1.15-8.08-8.19-25.37-20.22-25.77-32.89Z"/>
      </g>
      <path class="cls-1" d="m5.05,175.53c80.73,4.15,161.7,3.95,242.38-1.36,3.39-.26,6.35,2.27,6.61,5.66.32,3.72-2.89,6.93-6.61,6.61-60.51-4.31-121.17-4.67-181.79-3.66-20.2.4-40.4,1.02-60.6,2.3-6.64.16-6.82-9.63,0-9.54h0Z"/>
      <path class="cls-1" d="m28.9,189.61c56.43-3,114.54-2.8,171.02-1.12,3.71.16,14.65.61,18.32.78,0,0,6.11.34,6.11.34,0,0,.14,0,.14,0,3.12.23,3.15,4.88-.14,4.99,0,0-195.45,0-195.45,0-3.22-.06-3.36-4.89,0-5h0Z"/>
    </g>
  </g>
</svg>