<?xml version="1.0" encoding="UTF-8"?>
<svg id="Layer_2" data-name="Layer 2" xmlns="http://www.w3.org/2000/svg" viewBox="0 0 630.75 782.32">
  <defs>
    <style>
      .cls-1 {
        opacity: .28;
      }

      .cls-2 {
        fill: #d1d1d1;
        stroke: #fff;
        stroke-miterlimit: 10;
      }
    </style>
  </defs>
  <g id="Layer_1-2" data-name="Layer 1">
    <g class="cls-1">
      <rect class="cls-2" x="225.97" y="378.4" width="110.07" height="397.13"/>
      <rect class="cls-2" x="188.23" y="709.49" width="185.55" height="72.33"/>
      <rect class="cls-2" x="188.23" y="306.94" width="185.55" height="72.33"/>
      <rect class="cls-2" x=".5" y="306.94" width="55.64" height="210.71"/>
      <rect class="cls-2" x=".5" y="561.68" width="55.64" height="72.4"/>
      <polygon class="cls-2" points="56.14 634.08 93.88 634.08 93.88 692.89 .5 692.89 .5 687.78 .5 634.08 56.14 634.08"/>
      <polygon class="cls-2" points="56.14 517.65 464.98 517.65 464.98 561.68 56.14 561.68 .5 561.68 .5 517.65 56.14 517.65"/>
      <path class="cls-2" d="m.5,306.07v-45.98c177.57-.12,337.79-28.27,451.48-73.4,21.86-8.68,41.97-18,60.18-27.85v148.1H62.43s-6.29,0-6.29,0v-.87s-55.64,0-55.64,0Z"/>
      <rect class="cls-2" x=".5" y="306.07" width="55.64" height=".87"/>
      <path class="cls-2" d="m445.72,124.89C333.38,155.45,175.58,174.61.5,175.1v-39.23c198.45-.11,377.48-28.26,504.53-73.4,50.26-17.86,92.3-38.37,124.29-60.85l-66.11,124.22c-14.71,11.56-31.81,22.58-51.06,33-18.2,9.86-38.32,19.17-60.18,27.85C338.29,231.82,178.07,259.96.5,260.09v-53.49c43.37-.08,85.57-1.56,126.07-4.34,3.45-.24,6.84-.51,10.26-.76,102.54-7.64,193.69-23.51,264.6-45.06,40.22-12.23,73.87-26.26,99.44-41.64l5.03-7.26-3.14-.57c-17.36,6.32-36.42,12.33-57.05,17.93Z"/>
    </g>
  </g>
</svg>