<?xml version="1.0" encoding="UTF-8"?>
<svg id="Layer_2" data-name="Layer 2" xmlns="http://www.w3.org/2000/svg" xmlns:xlink="http://www.w3.org/1999/xlink" viewBox="0 0 164 164">
  <defs>
    <style>
      .cls-1 {
        fill: #fff;
      }

      .cls-2 {
        stroke: #fff;
        stroke-miterlimit: 10;
      }

      .cls-2, .cls-3, .cls-4 {
        fill: #2d2f33;
      }

      .cls-5 {
        fill: #ffa6ce;
      }

      .cls-6 {
        fill: none;
      }

      .cls-7 {
        fill: url(#linear-gradient);
      }

      .cls-4 {
        isolation: isolate;
        opacity: .39;
      }
    </style>
    <linearGradient id="linear-gradient" x1="96.78" y1="-47.79" x2="-43.74" y2="195.6" gradientUnits="userSpaceOnUse">
      <stop offset="0" stop-color="#22f47c"/>
      <stop offset=".15" stop-color="#21f385"/>
      <stop offset=".4" stop-color="#20f39e"/>
      <stop offset=".72" stop-color="#1ef2c7"/>
      <stop offset=".99" stop-color="#1df2f2"/>
    </linearGradient>
  </defs>
  <g id="Layer_1-2" data-name="Layer 1">
    <polygon class="cls-6" points="30.1 64.69 8.9 64.69 8.9 76.87 2.54 76.87 2.54 100.19 31.16 100.19 31.16 64.69 30.1 64.69"/>
    <polygon class="cls-6" points="75.68 100.19 75.68 76.87 69.32 76.87 69.32 64.69 49.71 64.69 49.71 100.19 75.68 100.19"/>
    <path class="cls-6" d="m.47,76.87c-.12,1.8-.18,3.61-.18,5.44,0,6.14.68,12.12,1.96,17.88h.3v-23.32H.47Z"/>
    <path class="cls-1" d="m140.74,24.81h0s-4.98,9.36-4.98,9.36c-2.62,2.06-5.72,4.03-9.2,5.87-.18.09-.35.19-.53.28-2.77,1.44-5.77,2.82-9.01,4.1-19.2,7.62-46.28,12.37-76.28,12.37-12.49,0-24.47-.83-35.59-2.34.99-2.73,2.11-5.39,3.37-7.98,2.97.17,5.98.32,9.05.44.58.04,1.15.09,1.73.13,7.02.48,14.33.74,21.86.74,7.97,0,15.69-.29,23.08-.83.84-.06,1.67-.13,2.5-.2,15.27-1.25,28.97-3.58,40.04-6.7.86-.24,1.72-.49,2.55-.74,6.77-2.06,12.44-4.43,16.76-7.02l.68-.98-8.91,2.68h0c-19.17,5.22-46.21,8.47-76.17,8.47-10.58,0-20.79-.41-30.42-1.16,1.27-2.19,2.64-4.33,4.1-6.39,8.17.61,16.66.93,25.38.93,33.52,0,63.77-4.75,85.22-12.37,3.33-1.18,6.43-2.44,9.31-3.75.01,0,.03-.01.04-.02C120.97,7.44,102.36,0,82,0,36.71,0,0,36.71,0,82s36.71,82,82,82,82-36.71,82-82c0-22.25-8.88-42.42-23.26-57.19Z"/>
    <path class="cls-5" d="m.47,76.87c-.12,1.8-.18,3.61-.18,5.44,0,6.14.68,12.12,1.96,17.88h.3v-23.32H.47Z"/>
    <rect class="cls-6" x="75.68" y="76.87" width="18.55" height="23.32"/>
    <rect class="cls-5" x="75.68" y="76.87" width="18.55" height="23.32"/>
    <rect class="cls-6" x="75.68" y="107.61" width="18.55" height="24.38"/>
    <rect class="cls-5" x="75.68" y="107.61" width="18.55" height="24.38"/>
    <polygon class="cls-6" points="49.71 64.69 48.65 64.69 31.16 64.69 31.16 100.19 49.71 100.19 49.71 64.69"/>
    <polygon class="cls-5" points="49.71 64.69 48.65 64.69 31.16 64.69 31.16 100.19 49.71 100.19 49.71 64.69"/>
    <rect class="cls-6" x="31.16" y="107.61" width="18.55" height="12.2"/>
    <rect class="cls-5" x="31.16" y="107.61" width="18.55" height="12.2"/>
    <polygon class="cls-3" points="49.71 119.81 31.16 119.81 24.8 119.81 24.8 129.72 56.07 129.72 56.07 119.81 49.71 119.81"/>
    <path class="cls-6" d="m126.02,44.05l-.68.98c-4.32,2.59-10,4.96-16.79,7.02-17.19,5.21-41.44,8.46-68.3,8.46-12.91,0-25.21-.76-36.42-2.12-.63,2.06-1.18,4.17-1.64,6.3h124.36v-24.64c-.18.09-.35.19-.53.28v3.73Z"/>
    <path class="cls-6" d="m108.56,52.04c6.79-2.06,12.47-4.43,16.79-7.02l.68-.98v-3.73c-2.77,1.44-5.77,2.82-9.01,4.1-19.2,7.62-46.28,12.37-76.28,12.37-12.49,0-24.47-.83-35.59-2.34-.47,1.3-.9,2.61-1.31,3.93,11.21,1.36,23.51,2.12,36.42,2.12,26.86,0,51.11-3.25,68.3-8.46Z"/>
    <path class="cls-5" d="m126.02,40.32c-2.77,1.44-5.77,2.82-9.01,4.1-19.2,7.62-46.28,12.37-76.28,12.37-12.49,0-24.47-.83-35.59-2.34-.47,1.3-.9,2.61-1.31,3.94-.63,2.06-1.18,4.17-1.64,6.3h124.36v-24.64c-.18.09-.35.19-.53.28Z"/>
    <path class="cls-4" d="m108.56,52.04c6.79-2.06,12.47-4.43,16.79-7.02l.68-.98v-3.73c-2.77,1.44-5.77,2.82-9.01,4.1-19.2,7.62-46.28,12.37-76.28,12.37-12.49,0-24.47-.83-35.59-2.34-.47,1.3-.9,2.61-1.31,3.93,11.21,1.36,23.51,2.12,36.42,2.12,26.86,0,51.11-3.25,68.3-8.46Z"/>
    <path class="cls-3" d="m2.19,64.69c-.86,3.92-1.44,7.94-1.71,12.04,0,.05,0,.1,0,.15h8.43v-12.19H2.19Z"/>
    <polygon class="cls-3" points="94.23 131.99 75.68 131.99 69.32 131.99 69.32 144.18 100.58 144.18 100.58 131.99 94.23 131.99"/>
    <polygon class="cls-3" points="69.32 64.69 69.32 76.87 75.68 76.87 94.23 76.87 100.58 76.87 100.58 64.69 69.32 64.69"/>
    <path class="cls-2" d="m8.69,46.11c-.06.12-.12.24-.18.37,2.96.17,5.98.32,9.05.44-3.02-.23-5.98-.49-8.87-.8Z"/>
    <g>
      <path class="cls-3" d="m140.01,26.31c-.13,0-.26-.05-.35-.15-1.89-1.89-3.92-3.74-6.04-5.5-.13-.11-.2-.28-.17-.45.02-.17.13-.32.29-.39,4.97-2.2,9.3-4.56,12.88-7,.09-.06.18-.09.28-.09.12,0,.24.04.34.13.17.16.21.41.1.61l-6.89,12.58c-.08.14-.21.23-.37.25-.02,0-.05,0-.07,0Z"/>
      <path class="cls-1" d="m146.9,13.23h0m0,0l-6.89,12.58c-1.94-1.93-3.96-3.77-6.07-5.53,4.96-2.2,9.31-4.55,12.96-7.05m0-1s-.03,0-.04,0h0c-.2,0-.38.07-.53.18-3.55,2.42-7.85,4.76-12.79,6.95-.32.14-.54.43-.59.78-.05.34.08.69.35.91,2.1,1.75,4.12,3.59,6.01,5.47.19.19.44.29.71.29.05,0,.09,0,.14-.01.31-.04.58-.23.73-.51l6.86-12.52c.1-.15.15-.34.15-.53,0-.55-.45-1-1-1h0Zm0,2h0,0Z"/>
    </g>
    <path class="cls-3" d="m125.95,23.49c-21.45,7.62-51.7,12.37-85.22,12.37-8.71,0-17.2-.32-25.38-.93-1.46,2.06-2.83,4.19-4.1,6.39,9.63.75,19.84,1.16,30.42,1.16,29.96,0,56.99-3.25,76.17-8.46h0s8.91-2.68,8.91-2.68l-.68.98c-4.31,2.59-9.98,4.96-16.76,7.02-.83.25-1.68.5-2.55.74-11.07,3.12-24.77,5.45-40.04,6.7-.83.07-1.66.14-2.5.2-7.39.54-15.11.83-23.08.83-7.53,0-14.84-.25-21.86-.74-.58-.04-1.15-.09-1.73-.13-3.07-.12-6.09-.27-9.05-.44-1.26,2.59-2.38,5.25-3.37,7.98,11.12,1.51,23.1,2.34,35.59,2.34,30,0,57.08-4.75,76.28-12.37,3.24-1.29,6.24-2.66,9.01-4.1.18-.09.35-.18.53-.28,3.48-1.85,6.58-3.81,9.2-5.87l4.98-9.35h0c-1.73-1.78-3.54-3.48-5.43-5.09-.01,0-.03.01-.04.02-2.88,1.31-5.99,2.57-9.31,3.75Z"/>
    <path class="cls-2" d="m40.89,47.71c-7.55,0-14.88-.25-21.92-.74h0c-.47-.01-.94-.03-1.41-.05.58.04,1.15.09,1.73.13,7.02.48,14.33.74,21.86.74,7.97,0,15.69-.29,23.08-.83.84-.06,1.67-.13,2.5-.2-.9.04-1.8.08-2.7.12-7.41.54-15.16.83-23.14.83Z"/>
    <path class="cls-7" d="m40.89,47.71c-7.55,0-14.88-.25-21.92-.74h0c-.47-.01-.94-.03-1.41-.05.58.04,1.15.09,1.73.13,7.02.48,14.33.74,21.86.74,7.97,0,15.69-.29,23.08-.83.84-.06,1.67-.13,2.5-.2-.9.04-1.8.08-2.7.12-7.41.54-15.16.83-23.14.83Z"/>
    <path class="cls-2" d="m40.26,46.18c25.22,0,48.37-2.29,66.52-6.12.86-.24,1.72-.49,2.55-.74,6.77-2.06,12.44-4.43,16.76-7.02l.68-.98-8.91,2.68h0c-19.17,5.22-46.21,8.47-76.17,8.47-10.58,0-20.79-.41-30.42-1.16-.7,1.2-1.37,2.43-2,3.67,9.8.78,20.21,1.2,31,1.2Z"/>
    <path class="cls-2" d="m9.26,44.98c-.19.38-.38.76-.56,1.13,2.89.31,5.85.58,8.87.8.47.02.94.04,1.41.06h0c7.03.48,14.37.73,21.92.73,7.99,0,15.73-.29,23.14-.83.91-.04,1.8-.08,2.7-.12,15.27-1.25,28.97-3.58,40.04-6.7-18.15,3.83-41.3,6.12-66.52,6.12-10.79,0-21.2-.42-31-1.2Z"/>
    <path class="cls-5" d="m117.85,34h0c-19.17,5.22-46.21,8.47-76.17,8.47-10.58,0-20.79-.41-30.42-1.16-.7,1.2-1.37,2.43-2,3.67-.19.38-.38.76-.56,1.13,2.89.31,5.85.58,8.87.8.47.02.94.04,1.41.06h0c7.03.48,14.37.73,21.92.73,7.99,0,15.73-.29,23.14-.83.91-.04,1.8-.08,2.7-.12,15.27-1.25,28.97-3.58,40.04-6.7.86-.24,1.72-.49,2.55-.74,6.77-2.06,12.44-4.43,16.76-7.02l.68-.98-8.91,2.68Z"/>
    <path class="cls-3" d="m94.23,100.19H2.24c.1.43.2.86.3,1.29.5,2.07,1.07,4.12,1.72,6.13h114.34v-7.42h-24.38Z"/>
  </g>
</svg>