<?xml version="1.0" encoding="UTF-8"?>
<svg id="Layer_2" data-name="Layer 2" xmlns="http://www.w3.org/2000/svg" viewBox="0 0 280.09 173.44">
  <defs>
    <style>
      .cls-1 {
        fill: #fff;
      }

      .cls-2 {
        fill: none;
        stroke: #2d2f33;
        stroke-miterlimit: 10;
      }

      .cls-3, .cls-4 {
        fill: #2d2f33;
      }

      .cls-4 {
        isolation: isolate;
        opacity: .39;
      }
    </style>
  </defs>
  <g id="Layer_1-2" data-name="Layer 1">
    <g>
      <rect class="cls-2" x="65.19" y="83.76" width="24.47" height="88.28"/>
      <rect class="cls-2" x="186.14" y="83.76" width="24.47" height="88.28"/>
      <rect class="cls-2" x="127.41" y="67.68" width="24.47" height="84.85"/>
      <rect class="cls-3" x="119.02" y="140.59" width="41.25" height="13.07"/>
      <rect class="cls-3" x="36.53" y="114.71" width="206.23" height="9.79"/>
      <path class="cls-2" d="m240.71,37.27c-17.78,3.33-40.65,5.78-66.37,6.96-1.1.09-2.19.18-3.3.26-9.75.71-19.94,1.09-30.45,1.09-9.93,0-19.57-.34-28.83-.97-.77-.05-1.52-.11-2.28-.17-27.5-1.08-51.96-3.63-70.72-7.16-4.6-.87-8.84-1.79-12.71-2.77v33.37h227.21v-33.31c-3.83.96-8.02,1.86-12.54,2.71Z"/>
      <path class="cls-4" d="m49.32,51.19c22.68,6.88,54.66,11.16,90.1,11.16s67.42-4.29,90.1-11.16c8.96-2.71,16.45-5.84,22.15-9.26l.89-1.29v-12.25c-3.81,1.38-7.98,2.68-12.48,3.9-25.34,6.88-61.06,11.16-100.66,11.16s-75.32-4.29-100.66-11.16c-4.59-1.24-8.84-2.58-12.71-3.98v12.01l1.13,1.61c5.7,3.42,13.19,6.54,22.15,9.26h0Z"/>
      <rect class="cls-3" x="56.81" y="157.36" width="41.25" height="16.08"/>
      <rect class="cls-3" x="56.81" y="67.87" width="41.25" height="16.08"/>
      <rect class="cls-3" x="177.75" y="156.66" width="41.25" height="16.08"/>
      <rect class="cls-3" x="177.75" y="67.87" width="41.25" height="16.08"/>
      <path class="cls-3" d="m0,0l14.7,27.61c6.36,5,14.73,9.56,24.73,13.53,25.33,10.05,61.05,16.32,100.62,16.32s75.29-6.26,100.62-16.32c10-3.97,18.37-8.53,24.73-13.53l14.7-27.61c-7.11,5-16.46,9.56-27.63,13.53-28.3,10.05-68.2,16.32-112.41,16.32S55.93,23.58,27.63,13.53C16.46,9.56,7.11,5,0,0Z"/>
      <path class="cls-1" d="m252.63,25.15l.89-1.29-11.75,3.53h0c-25.29,6.89-60.95,11.17-100.47,11.17s-75.18-4.29-100.47-11.16c-4.59-1.24-8.82-2.58-12.68-3.98l-.7.13,1.12,1.61c5.68,3.42,13.16,6.54,22.11,9.26,15.76,4.79,36.03,8.32,58.82,10.02.62.02,1.23.05,1.86.08h0c9.27.63,18.95.96,28.91.96,10.54,0,20.76-.38,30.53-1.09,1.2-.05,2.38-.1,3.56-.16,21.72-1.77,41.03-5.21,56.18-9.81,8.93-2.71,16.41-5.84,22.11-9.26Z"/>
    </g>
  </g>
</svg>